<svg width="150" height="150" viewBox="0 0 150 150" fill="none" xmlns="http://www.w3.org/2000/svg">
<path fill-rule="evenodd" clip-rule="evenodd" d="M62.588 35.4081C56.8753 35.4081 52.2443 40.0391 52.2443 45.7517C52.2443 51.4643 56.8753 56.0953 62.588 56.0953C68.3006 56.0953 72.9316 51.4643 72.9316 45.7517C72.9316 40.0391 68.3006 35.4081 62.588 35.4081ZM48.1069 45.7517C48.1069 37.754 54.5903 31.2707 62.588 31.2707C70.5856 31.2707 77.069 37.754 77.069 45.7517C77.069 53.7494 70.5856 60.2328 62.588 60.2328C54.5903 60.2328 48.1069 53.7494 48.1069 45.7517ZM94.0354 64.0169C93.2807 62.8428 91.6038 62.7377 90.7084 63.8083L69.4944 89.1726C69.125 89.6143 68.5882 89.8821 68.0131 89.9115C67.438 89.9408 66.8767 89.7292 66.4642 89.3275L52.2995 75.5325C51.3722 74.6294 49.8528 74.79 49.1348 75.867L31.3606 102.528C30.444 103.903 31.4296 105.745 33.0818 105.745H117.071C118.708 105.745 119.696 103.934 118.811 102.557L94.0354 64.0169ZM87.5347 61.1539C90.2209 57.9421 95.2516 58.2575 97.5157 61.7795L122.292 100.32C124.947 104.45 121.981 109.882 117.071 109.882H33.0818C28.125 109.882 25.1684 104.358 27.918 100.233L45.6923 73.5719C47.8462 70.3411 52.4044 69.8593 55.1861 72.5684L67.7523 84.8066L87.5347 61.1539Z" fill="#5F6063"/>
</svg>
