<svg width="52" height="52" viewBox="0 0 52 52" fill="none" xmlns="http://www.w3.org/2000/svg">
<path d="M26 0.5C29.3487 0.5 32.6646 1.15958 35.7584 2.44107C38.8522 3.72257 41.6633 5.60088 44.0312 7.96878C46.3991 10.3367 48.2774 13.1478 49.5589 16.2416C50.8404 19.3354 51.5 22.6513 51.5 26C51.5 29.3487 50.8404 32.6646 49.5589 35.7584C48.2774 38.8522 46.3991 41.6633 44.0312 44.0312C41.6633 46.3991 38.8522 48.2774 35.7584 49.5589C32.6646 50.8404 29.3487 51.5 26 51.5C22.6513 51.5 19.3354 50.8404 16.2416 49.5589C13.1478 48.2774 10.3367 46.3991 7.96878 44.0312C5.60088 41.6633 3.72257 38.8522 2.44107 35.7584C1.15958 32.6646 0.5 29.3487 0.5 26C0.5 22.6513 1.15958 19.3354 2.44107 16.2416C3.72257 13.1478 5.60089 10.3367 7.96878 7.96877C10.3367 5.60088 13.1478 3.72256 16.2416 2.44107C19.3354 1.15958 22.6513 0.499999 26 0.5L26 0.5Z" stroke="#D5D6D7"/>
<path d="M26 0.5C32.763 0.5 39.249 3.1866 44.0312 7.96878C48.8134 12.751 51.5 19.237 51.5 26C51.5 32.763 48.8134 39.249 44.0312 44.0312C39.249 48.8134 32.763 51.5 26 51.5" stroke="#0092FF"/>
</svg>
