<svg width="22" height="19" viewBox="0 0 22 19" fill="none" xmlns="http://www.w3.org/2000/svg">
<path d="M18.6113 15C18.6113 15.663 18.3479 16.2989 17.8791 16.7678C17.4103 17.2366 16.7744 17.5 16.1113 17.5C15.4483 17.5 14.8124 17.2366 14.3436 16.7678C13.8747 16.2989 13.6113 15.663 13.6113 15C13.6113 14.337 13.8747 13.7011 14.3436 13.2322C14.8124 12.7634 15.4483 12.5 16.1113 12.5C16.7744 12.5 17.4103 12.7634 17.8791 13.2322C18.3479 13.7011 18.6113 14.337 18.6113 15ZM8.61133 15C8.61133 15.663 8.34794 16.2989 7.8791 16.7678C7.41025 17.2366 6.77437 17.5 6.11133 17.5C5.44829 17.5 4.8124 17.2366 4.34356 16.7678C3.87472 16.2989 3.61133 15.663 3.61133 15C3.61133 14.337 3.87472 13.7011 4.34356 13.2322C4.8124 12.7634 5.44829 12.5 6.11133 12.5C6.77437 12.5 7.41025 12.7634 7.8791 13.2322C8.34794 13.7011 8.61133 14.337 8.61133 15Z" stroke="#0C0D0D" stroke-width="1.5" stroke-linecap="round" stroke-linejoin="round"/>
<path d="M13.6113 15H8.61133M18.6113 15H19.3743C19.5943 15 19.7043 15 19.7963 14.988C20.1274 14.9468 20.4352 14.7964 20.6712 14.5606C20.9072 14.3248 21.0579 14.017 21.0993 13.686C21.1113 13.593 21.1113 13.483 21.1113 13.263V10.5C21.1113 8.77609 20.4265 7.12279 19.2075 5.90381C17.9885 4.68482 16.3352 4 14.6113 4M14.1113 13V4.5C14.1113 3.086 14.1113 2.379 13.6713 1.94C13.2333 1.5 12.5263 1.5 11.1113 1.5H4.11133C2.69733 1.5 1.99033 1.5 1.55133 1.94C1.11133 2.378 1.11133 3.085 1.11133 4.5V12.5C1.11133 13.435 1.11133 13.902 1.31233 14.25C1.44398 14.478 1.63332 14.6674 1.86133 14.799C2.20933 15 2.67633 15 3.61133 15" stroke="#0C0D0D" stroke-width="1.5" stroke-linecap="round" stroke-linejoin="round"/>
<path d="M8.43833 9.5L9.92433 8.326C10.7153 7.7 11.1113 7.388 11.1113 7M11.1113 7C11.1113 6.612 10.7153 6.3 9.92433 5.674L8.43833 4.5M11.1113 7H4.11133" stroke="#0C0D0D" stroke-width="1.5" stroke-linecap="round" stroke-linejoin="round"/>
</svg>
