<svg width="25" height="25" viewBox="0 0 25 25" fill="none" xmlns="http://www.w3.org/2000/svg">
<path d="M15.6383 16.477H18.8783C20.1563 16.456 22.1113 17.129 22.1113 19.557C22.1113 22.077 19.6993 22.5 18.8773 22.5H8.05733C5.54933 22.5 2.11133 21.991 2.11133 17.67V8.502H22.1113V13.019M17.6133 14.476L15.9113 15.896C15.8283 15.9686 15.7612 16.0576 15.7142 16.1575C15.6672 16.2573 15.6414 16.3657 15.6383 16.476C15.6355 16.5937 15.6587 16.7105 15.7062 16.8182C15.7538 16.9259 15.8245 17.0218 15.9133 17.099L17.6133 18.482M2.11733 8.491L3.03833 6.191C3.78633 4.402 4.16033 3.508 4.91833 3.005C5.67633 2.502 6.64833 2.5 8.59133 2.5H15.6113C17.5553 2.5 18.5273 2.5 19.2853 3.004C20.0433 3.507 20.4163 4.401 21.1653 6.189L22.1113 8.495M12.0743 8.501V2.501M10.0743 12.501H14.0743" stroke="#0C0D0D" stroke-width="1.5" stroke-linecap="round" stroke-linejoin="round"/>
</svg>
