<svg width="114" height="99" viewBox="0 0 114 99" fill="none" xmlns="http://www.w3.org/2000/svg">
<g clip-path="url(#clip0_5_405)">
<path d="M102.275 18.1027C107.153 18.1598 113.635 16.9156 114 23.6808L106.314 63.2092C106.272 64.6711 103.343 67.0921 102.145 67.0921H37.4945C38.6358 71.4519 37.8489 77.4447 43.4092 78.694L104.484 78.7614C108.106 78.9014 109.399 83.3182 105.928 84.8579L43.3415 84.9927C39.011 84.552 35.2485 81.6023 33.4715 77.7194C28.3228 55.1169 24.6959 32.1308 19.7765 9.45572C19.1564 8.02492 17.5826 6.68225 16.0088 6.4697C11.9649 5.92019 6.10754 7.154 2.30337 6.38675C-0.776446 5.75948 -0.917148 0.762049 2.7828 0.238459C6.11275 -0.228106 16.5403 -0.0518481 19.5368 1.13012C26.7334 3.96061 26.4624 11.6486 27.8799 18.0924C30.2979 18.1287 32.7315 18.0924 35.1547 18.1027C41.132 18.1338 47.1248 18.0975 53.1073 18.1027C63.3368 18.1131 73.5768 18.0768 83.8064 18.1027C89.9556 18.1183 96.1256 18.0302 102.28 18.1027H102.275Z" fill="#FD6121"/>
<path d="M78.8609 6.4386C78.9026 6.47489 78.913 6.88961 79.1111 7.08142C82.0346 9.95339 83.8637 13.9555 83.8011 18.1027C73.5716 18.0768 63.3316 18.1131 53.102 18.1027C53.0082 16.7601 53.1646 15.5107 53.4929 14.2147C53.6753 13.4837 54.8478 10.3785 55.1865 9.80824C57.8651 5.31884 64.7178 2.38467 69.8508 2.84086C72.1593 3.04823 77.1934 4.94041 78.8609 6.4386Z" fill="#40D1F2"/>
<path d="M102.275 18.1027C96.1256 18.0302 89.9556 18.1183 83.8012 18.1027C83.8585 13.9607 82.0346 9.95339 79.1111 7.08142C78.9131 6.88443 78.9026 6.47489 78.8609 6.4386C80.1898 2.66979 82.0398 -0.461383 86.5891 0.943497C89.7575 1.92328 98.7208 5.68691 101.504 7.34063C103.046 8.25302 104.323 9.91711 104.365 11.7678C104.417 13.9244 102.41 15.9876 102.275 18.1079V18.1027Z" fill="#F6DB7E"/>
<path d="M55.1865 9.80824C54.8478 10.3785 53.6753 13.4786 53.4929 14.2147C53.1698 15.5107 53.0134 16.7601 53.102 18.1027C47.1248 18.0975 41.1319 18.1338 35.1495 18.1027C34.4043 13.6444 29.8862 8.20118 35.9364 5.53657C38.3179 4.48939 44.9621 2.06843 47.3645 1.63297C53.4929 0.513216 53.3626 5.61952 55.1813 9.80824H55.1865Z" fill="#F7D348"/>
<path d="M48.0941 86.8537C53.2323 85.9828 57.2137 91.1461 54.7227 95.7859C51.2677 102.204 40.986 97.8906 43.7271 90.5344C44.3629 88.834 46.291 87.1544 48.0941 86.8486V86.8537Z" fill="#F7D449"/>
<path d="M89.7263 86.8589C98.3404 85.6044 99.4556 98.1187 91.4512 98.9585C83.4468 99.7983 82.3472 87.9372 89.7263 86.8589Z" fill="#F7D449"/>
</g>
<defs>
<clipPath id="clip0_5_405">
<rect width="114" height="99" fill="white"/>
</clipPath>
</defs>
</svg>
