<svg width="83" height="84" viewBox="0 0 83 84" fill="none" xmlns="http://www.w3.org/2000/svg">
<path fill-rule="evenodd" clip-rule="evenodd" d="M34.6081 20.1739C31.4359 20.1739 28.8643 22.7454 28.8643 25.9176C28.8643 29.0898 31.4359 31.6614 34.6081 31.6614C37.7802 31.6614 40.3518 29.0898 40.3518 25.9176C40.3518 22.7454 37.7802 20.1739 34.6081 20.1739ZM26.5668 25.9176C26.5668 21.4766 30.167 17.8764 34.6081 17.8764C39.0491 17.8764 42.6493 21.4766 42.6493 25.9176C42.6493 30.3587 39.0491 33.9589 34.6081 33.9589C30.167 33.9589 26.5668 30.3587 26.5668 25.9176ZM52.0706 36.0601C51.6515 35.4082 50.7204 35.3498 50.2231 35.9443L38.4432 50.029C38.238 50.2742 37.9399 50.4229 37.6206 50.4392C37.3013 50.4555 36.9896 50.338 36.7605 50.1149L28.8949 42.4547C28.38 41.9532 27.5363 42.0424 27.1376 42.6404L17.2677 57.4453C16.7588 58.2087 17.306 59.2313 18.2235 59.2313H64.8622C65.7711 59.2313 66.32 58.2259 65.8285 57.4613L52.0706 36.0601ZM48.4608 34.4704C49.9524 32.6869 52.7459 32.862 54.0032 34.8177L67.7611 56.219C69.2355 58.5125 67.5888 61.5288 64.8622 61.5288H18.2235C15.471 61.5288 13.8293 58.4611 15.3561 56.1709L25.226 41.366C26.422 39.572 28.9532 39.3044 30.4979 40.8088L37.4758 47.6045L48.4608 34.4704Z" fill="#747474"/>
</svg>
