<svg width="52" height="52" viewBox="0 0 52 52" fill="none" xmlns="http://www.w3.org/2000/svg">
<path d="M26 0.5C22.6513 0.5 19.3354 1.15958 16.2416 2.44107C13.1478 3.72257 10.3367 5.60088 7.96878 7.96878C5.60088 10.3367 3.72257 13.1478 2.44107 16.2416C1.15958 19.3354 0.5 22.6513 0.5 26C0.5 29.3487 1.15958 32.6646 2.44107 35.7584C3.72257 38.8522 5.60088 41.6633 7.96878 44.0312C10.3367 46.3991 13.1478 48.2774 16.2416 49.5589C19.3354 50.8404 22.6513 51.5 26 51.5C29.3487 51.5 32.6646 50.8404 35.7584 49.5589C38.8522 48.2774 41.6633 46.3991 44.0312 44.0312C46.3991 41.6633 48.2774 38.8522 49.5589 35.7584C50.8404 32.6646 51.5 29.3487 51.5 26C51.5 22.6513 50.8404 19.3354 49.5589 16.2416C48.2774 13.1478 46.3991 10.3367 44.0312 7.96877C41.6633 5.60088 38.8522 3.72256 35.7584 2.44107C32.6646 1.15958 29.3487 0.499999 26 0.5L26 0.5Z" stroke="#D5D6D7"/>
<path d="M26 0.5C19.237 0.5 12.751 3.1866 7.96878 7.96878C3.1866 12.751 0.500001 19.237 0.5 26C0.499999 32.763 3.1866 39.249 7.96878 44.0312C12.751 48.8134 19.237 51.5 26 51.5" stroke="#D5D6D7"/>
</svg>
