<svg width="25" height="25" viewBox="0 0 25 25" fill="none" xmlns="http://www.w3.org/2000/svg">
<g clip-path="url(#clip0_5_1163)">
<path d="M5.93555 2.01293C5.86974 2.01185 5.80439 2.02438 5.7433 2.04979C5.68221 2.07519 5.62659 2.11297 5.57969 2.16091C5.5328 2.20885 5.49556 2.266 5.47014 2.32903C5.44472 2.39207 5.43163 2.45972 5.43164 2.52805V3.69621L3.97656 5.20711V1.8953C3.97616 1.52446 4.11733 1.16858 4.36914 0.905611C4.62329 0.647038 4.9645 0.501533 5.32031 0.5L22.7676 0.5C23.1234 0.501533 23.4646 0.647038 23.7188 0.905611C23.9654 1.1703 24.1052 1.52296 24.1094 1.89125V16.7731C24.1094 17.1442 24.0215 17.5722 23.7188 17.7608C23.466 18.0203 23.125 18.1661 22.7695 18.1664H12.1582C12.0938 17.8088 11.9876 17.4608 11.8418 17.13L12.3105 16.6453H22.1641C22.2946 16.6443 22.4195 16.5898 22.5116 16.4938C22.6038 16.3977 22.6557 16.2678 22.6563 16.1322V2.52805C22.6563 2.39143 22.604 2.26041 22.5109 2.16381C22.4179 2.0672 22.2917 2.01293 22.1602 2.01293H19.4648V7.37308L16.6172 5.89463L13.7832 7.37308V2.01293H5.93555ZM1.93555 16.258L1.31445 19.9085C1.30585 19.9562 1.28569 20.0009 1.25586 20.0383C1.09618 20.2272 0.987661 20.4568 0.941406 20.7035C0.923631 20.7684 0.923337 20.8371 0.940554 20.9022C0.957772 20.9673 0.991843 21.0262 1.03906 21.0726L3.29102 23.417C3.44064 23.5692 3.63143 23.6704 3.83789 23.707C4.07564 23.7828 4.32869 23.7905 4.57031 23.7293H4.58789L5.01172 23.6198C5.66211 23.4556 6.22852 23.3095 6.75586 22.8086L7.43164 22.0765C7.43967 22.0641 7.44883 22.0526 7.45898 22.042C7.46875 22.042 7.53516 21.9629 7.625 21.8757C8.08594 21.4052 8.66016 20.8252 8.31055 20.3182L8.03906 20.0363C7.9082 20.1681 7.76953 20.2958 7.63672 20.4216C7.50391 20.5473 7.40039 20.6366 7.29492 20.7461C7.24131 20.8017 7.16859 20.833 7.09277 20.833C7.01695 20.833 6.94424 20.8017 6.89063 20.7461C6.83701 20.6904 6.80689 20.6149 6.80689 20.5362C6.80689 20.4574 6.83701 20.3819 6.89063 20.3263C6.99414 20.2167 7.125 20.0971 7.25781 19.9734C7.7168 19.5556 8.23438 19.075 7.95898 18.6551L7.69141 18.3773L7.65234 18.3266C7.49805 18.4909 7.32813 18.647 7.16211 18.7991C7.04102 18.9107 6.92773 19.0141 6.82227 19.1236C6.7685 19.179 6.69584 19.21 6.62012 19.21C6.5444 19.21 6.47174 19.179 6.41797 19.1236C6.3911 19.0963 6.36976 19.0636 6.35518 19.0275C6.34061 18.9915 6.33311 18.9528 6.33311 18.9137C6.33311 18.8746 6.34061 18.8359 6.35518 18.7999C6.36976 18.7639 6.3911 18.7312 6.41797 18.7038C6.52148 18.5943 6.65234 18.4746 6.78516 18.353C7.24414 17.9332 7.76172 17.4525 7.48633 17.0327L7.21875 16.7549C7.20083 16.7351 7.1851 16.7134 7.17188 16.69L6.39063 17.5012C6.33701 17.5569 6.2643 17.5881 6.18848 17.5881C6.11266 17.5881 6.03994 17.5569 5.98633 17.5012C5.93272 17.4455 5.9026 17.37 5.9026 17.2913C5.9026 17.2125 5.93272 17.137 5.98633 17.0814L7.46094 15.5502C7.81445 15.1831 7.89453 14.8018 7.80274 14.5118C7.76953 14.4064 7.80273 14.4043 7.72852 14.3293C7.69149 14.2912 7.65017 14.2578 7.60547 14.2299C7.58398 14.2299 7.56836 14.2178 7.54688 14.1955C7.52168 14.1826 7.49556 14.1717 7.46875 14.163C7.22461 14.0778 6.99219 14.2279 6.67188 14.5098L6.6582 14.522C6.62305 14.5524 6.58789 14.5848 6.55273 14.6213L3.48438 17.8074C3.4306 17.8628 3.35795 17.8938 3.28223 17.8938C3.20651 17.8938 3.13385 17.8628 3.08008 17.8074C3.03096 17.7573 3.00109 17.6904 2.99606 17.6191C2.99102 17.5478 3.01117 17.477 3.05273 17.4201L1.93555 16.258ZM3.7832 16.477L3.88281 16.3756L5.90039 14.2786C5.51772 14.0998 5.20008 13.7987 4.99382 13.4192C4.78757 13.0397 4.70348 12.6017 4.75383 12.1691C4.80418 11.7365 4.98633 11.332 5.27371 11.0144C5.56109 10.6969 5.93866 10.483 6.35134 10.404C6.76403 10.325 7.19023 10.385 7.56778 10.5752C7.94533 10.7654 8.25446 11.0759 8.45009 11.4614C8.64572 11.8469 8.7176 12.2872 8.65526 12.7181C8.59291 13.149 8.3996 13.548 8.10352 13.8568L8.08398 13.877C8.0999 13.8909 8.1149 13.9058 8.12891 13.9217C8.1911 13.9829 8.24676 14.0509 8.29492 14.1245L10.7988 11.5346C10.6148 11.3417 10.5115 11.0812 10.5115 10.8096C10.5115 10.5381 10.6148 10.2775 10.7988 10.0846L8.93359 8.14779C8.74864 8.33975 8.49783 8.44759 8.23633 8.44759C7.97482 8.44759 7.72402 8.33975 7.53906 8.14779L2.34961 13.5363C2.53365 13.7293 2.63689 13.9898 2.63689 14.2614C2.63689 14.5329 2.53365 14.7935 2.34961 14.9864L3.7832 16.477ZM8.18555 15.7875C8.11455 15.8907 8.03481 15.987 7.94727 16.0755L7.65625 16.3797C7.67889 16.3932 7.69987 16.4096 7.71875 16.4283L7.99805 16.7204C8.01324 16.7366 8.02697 16.7543 8.03906 16.7731C8.17541 16.9418 8.25431 17.1525 8.26349 17.3726C8.27267 17.5926 8.21163 17.8096 8.08984 17.9899C8.12877 18.0048 8.1641 18.0284 8.19336 18.0589L8.47266 18.3489C8.48799 18.3658 8.50173 18.3841 8.51367 18.4037C8.65731 18.5851 8.73583 18.8127 8.73583 19.0476C8.73583 19.2824 8.65731 19.51 8.51367 19.6915C8.52633 19.7004 8.5381 19.7106 8.54883 19.7219L8.82813 20.0119C8.84287 20.0293 8.85656 20.0476 8.86914 20.0667C9.51953 20.9894 8.74414 21.7723 8.12109 22.405L7.96094 22.5713L7.26758 23.3278L7.24414 23.3501C6.60938 23.9585 5.97852 24.1086 5.25 24.2931L4.83398 24.4006H4.82227C4.47471 24.5081 4.10869 24.5351 3.75 24.4797C3.42847 24.4229 3.13172 24.2642 2.90039 24.0254L0.480469 21.5005C0.362944 21.3874 0.276702 21.2437 0.230683 21.0843C0.184664 20.9249 0.180544 20.7556 0.21875 20.594C0.306983 20.2434 0.470587 19.9182 0.697266 19.6428L1.33398 15.8362V15.8199C1.33398 15.7733 1.34961 15.7206 1.35938 15.6617L0.111328 14.3678L8.3457 5.81756L13.0664 10.7194L8.18359 15.7895L8.18555 15.7875Z" fill="#0C0D0D"/>
</g>
<defs>
<clipPath id="clip0_5_1163">
<rect width="24" height="24" fill="white" transform="translate(0.111328 0.5)"/>
</clipPath>
</defs>
</svg>
