<svg width="24" height="24" viewBox="0 0 24 24" fill="none" xmlns="http://www.w3.org/2000/svg">
<path d="M11.25 12C11.25 11.5858 10.9142 11.25 10.5 11.25C10.0858 11.25 9.75 11.5858 9.75 12V16.5C9.75 16.9142 10.0858 17.25 10.5 17.25C10.9142 17.25 11.25 16.9142 11.25 16.5V12Z" fill="#747474"/>
<path d="M13.5 11.25C13.9142 11.25 14.25 11.5858 14.25 12V16.5C14.25 16.9142 13.9142 17.25 13.5 17.25C13.0858 17.25 12.75 16.9142 12.75 16.5V12C12.75 11.5858 13.0858 11.25 13.5 11.25Z" fill="#747474"/>
<path fill-rule="evenodd" clip-rule="evenodd" d="M9 4.5C8.71592 4.5 8.45622 4.6605 8.32918 4.91459L7.03648 7.5H4.5C4.08579 7.5 3.75 7.83579 3.75 8.25C3.75 8.66421 4.08579 9 4.5 9H6V18.75C6 19.9926 7.00736 21 8.25 21H15.75C16.9926 21 18 19.9926 18 18.75V9H19.5C19.9142 9 20.25 8.66421 20.25 8.25C20.25 7.83579 19.9142 7.5 19.5 7.5H16.9635L15.6708 4.91459C15.5438 4.6605 15.2841 4.5 15 4.5H9ZM15.2865 7.5L14.5365 6H9.46353L8.71353 7.5H15.2865ZM7.5 9L7.5 18.75C7.5 19.1642 7.83579 19.5 8.25 19.5H15.75C16.1642 19.5 16.5 19.1642 16.5 18.75V9H7.5Z" fill="#747474"/>
</svg>
