<svg width="24" height="24" viewBox="0 0 24 24" fill="none" xmlns="http://www.w3.org/2000/svg">
<path d="M19.6602 4.16717C17.0202 2.36717 13.7602 3.20717 12.0002 5.26717C10.2402 3.20717 6.98021 2.35717 4.34021 4.16717C2.94021 5.12717 2.06021 6.74717 2.00021 8.45717C1.86021 12.3372 5.30021 15.4472 10.5502 20.2172L10.6502 20.3072C11.4102 20.9972 12.5802 20.9972 13.3402 20.2972L13.4502 20.1972C18.7002 15.4372 22.1302 12.3272 22.0002 8.44717C21.9402 6.74717 21.0602 5.12717 19.6602 4.16717ZM12.1002 18.7272L12.0002 18.8272L11.9002 18.7272C7.14021 14.4172 4.00021 11.5672 4.00021 8.67717C4.00021 6.67717 5.50021 5.17717 7.50021 5.17717C9.04021 5.17717 10.5402 6.16717 11.0702 7.53717H12.9402C13.4602 6.16717 14.9602 5.17717 16.5002 5.17717C18.5002 5.17717 20.0002 6.67717 20.0002 8.67717C20.0002 11.5672 16.8602 14.4172 12.1002 18.7272Z" fill="#747474"/>
</svg>
